<svg xmlns="http://www.w3.org/2000/svg" viewBox="0 0 512 512">
  <rect width="512" height="512" fill="#121c34"/>
  <svg x="56.32" y="125.22" width="399.36" height="261.57" viewBox="0 0 171 112" preserveAspectRatio="xMidYMid meet">
<g transform="matrix(1,0,0,1,-52.156,-152.359)">
        <g transform="matrix(0.496635,0,0,0.496635,28.3714,152.359)">
            <g transform="matrix(4,0,0,4,4,0)">
                <rect x="44" y="0" width="6" height="6" style="fill:rgb(24,95,165);"/>
            </g>
            <g transform="matrix(4,0,0,4,4,0)">
                <rect x="58" y="0" width="6" height="6" style="fill:rgb(24,95,165);"/>
            </g>
            <g transform="matrix(4,0,0,4,4,0)">
                <rect x="46" y="6" width="6" height="6" style="fill:rgb(43,108,176);"/>
            </g>
            <g transform="matrix(4,0,0,4,4,0)">
                <rect x="56" y="6" width="6" height="6" style="fill:rgb(43,108,176);"/>
            </g>
            <g>
                <g transform="matrix(4,0,0,4,0,0)">
                    <rect x="40" y="14" width="6" height="6" style="fill:rgb(133,183,235);"/>
                </g>
                <g transform="matrix(4,0,0,4,0,0)">
                    <rect x="46" y="14" width="6" height="6" style="fill:rgb(133,183,235);"/>
                </g>
                <g transform="matrix(4,0,0,4,0,0)">
                    <rect x="52" y="14" width="6" height="6" style="fill:rgb(181,212,244);"/>
                </g>
                <g transform="matrix(4,0,0,4,0,0)">
                    <rect x="58" y="14" width="6" height="6" style="fill:rgb(133,183,235);"/>
                </g>
                <g transform="matrix(4,0,0,4,0,0)">
                    <rect x="64" y="14" width="6" height="6" style="fill:rgb(133,183,235);"/>
                </g>
                <g transform="matrix(4,0,0,4,0,0)">
                    <rect x="40" y="20" width="6" height="6" style="fill:rgb(90,172,245);"/>
                </g>
                <g transform="matrix(4,0,0,4,0,0)">
                    <rect x="46" y="20" width="6" height="6" style="fill:rgb(120,196,255);"/>
                </g>
                <g transform="matrix(4,0,0,4,0,0)">
                    <rect x="52" y="20" width="6" height="6" style="fill:rgb(160,218,255);"/>
                </g>
                <g transform="matrix(4,0,0,4,0,0)">
                    <rect x="58" y="20" width="6" height="6" style="fill:rgb(120,196,255);"/>
                </g>
                <g transform="matrix(4,0,0,4,0,0)">
                    <rect x="64" y="20" width="6" height="6" style="fill:rgb(90,172,245);"/>
                </g>
                <g transform="matrix(4,0,0,4,0,0)">
                    <rect x="40" y="26" width="6" height="6" style="fill:rgb(55,138,221);"/>
                </g>
                <g transform="matrix(4,0,0,4,0,0)">
                    <rect x="40" y="26" width="6" height="6" style="fill:rgb(55,138,221);"/>
                </g>
                <g transform="matrix(4,0,0,4,0,0)">
                    <rect x="46" y="26" width="6" height="6" style="fill:rgb(90,172,245);"/>
                </g>
                <g transform="matrix(4,0,0,4,0,0)">
                    <rect x="52" y="26" width="6" height="6" style="fill:rgb(120,196,255);"/>
                </g>
                <g transform="matrix(4,0,0,4,0,0)">
                    <rect x="58" y="26" width="6" height="6" style="fill:rgb(90,172,245);"/>
                </g>
                <g transform="matrix(4,0,0,4,0,0)">
                    <rect x="64" y="26" width="6" height="6" style="fill:rgb(55,138,221);"/>
                </g>
                <g transform="matrix(4,0,0,4,0,0)">
                    <rect x="40" y="32" width="6" height="6" style="fill:rgb(24,95,165);"/>
                </g>
                <g transform="matrix(4,0,0,4,0,0)">
                    <rect x="46" y="32" width="6" height="6" style="fill:rgb(55,138,221);"/>
                </g>
                <g transform="matrix(4,0,0,4,0,0)">
                    <rect x="52" y="32" width="6" height="6" style="fill:rgb(90,172,245);"/>
                </g>
                <g transform="matrix(4,0,0,4,0,0)">
                    <rect x="58" y="32" width="6" height="6" style="fill:rgb(55,138,221);"/>
                </g>
                <g transform="matrix(4,0,0,4,0,0)">
                    <rect x="64" y="32" width="6" height="6" style="fill:rgb(24,95,165);"/>
                </g>
                <g transform="matrix(4,0,0,4,0,0)">
                    <rect x="40" y="38" width="6" height="6" style="fill:rgb(74,92,192);"/>
                </g>
                <g transform="matrix(4,0,0,4,0,0)">
                    <rect x="46" y="38" width="6" height="6" style="fill:rgb(90,110,208);"/>
                </g>
                <g transform="matrix(4,0,0,4,0,0)">
                    <rect x="52" y="38" width="6" height="6" style="fill:rgb(106,126,224);"/>
                </g>
                <g transform="matrix(4,0,0,4,0,0)">
                    <rect x="58" y="38" width="6" height="6" style="fill:rgb(90,110,208);"/>
                </g>
                <g transform="matrix(4,0,0,4,0,0)">
                    <rect x="64" y="38" width="6" height="6" style="fill:rgb(74,92,192);"/>
                </g>
                <g transform="matrix(4,0,0,4,-4,0)">
                    <rect x="44" y="44" width="6" height="6" style="fill:rgb(83,74,183);"/>
                </g>
                <g transform="matrix(4,0,0,4,-4,0)">
                    <rect x="50" y="44" width="6" height="6" style="fill:rgb(107,94,199);"/>
                </g>
                <g transform="matrix(4,0,0,4,-4,0)">
                    <rect x="56" y="44" width="6" height="6" style="fill:rgb(107,94,199);"/>
                </g>
                <g transform="matrix(4,0,0,4,-4,0)">
                    <rect x="62" y="44" width="6" height="6" style="fill:rgb(83,74,183);"/>
                </g>
                <g transform="matrix(4,0,0,4,-4,0)">
                    <rect x="50" y="50" width="6" height="6" style="fill:rgb(60,52,137);"/>
                </g>
                <g transform="matrix(4,0,0,4,-4,0)">
                    <rect x="56" y="50" width="6" height="6" style="fill:rgb(60,52,137);"/>
                </g>
            </g>
        </g>
        <g transform="matrix(0.496635,0,0,0.496635,32.5749,152.359)">
            <g transform="matrix(4,0,0,4,-0.572407,1)">
                <rect x="16" y="18" width="6" height="6" style="fill:rgb(206,203,246);fill-opacity:0.6;"/>
            </g>
            <g transform="matrix(4,0,0,4,-0.572407,1)">
                <rect x="22" y="18" width="6" height="6" style="fill:rgb(206,203,246);fill-opacity:0.7;"/>
            </g>
            <g transform="matrix(4,0,0,4,-0.572407,1)">
                <rect x="10" y="24" width="6" height="6" style="fill:rgb(181,212,244);fill-opacity:0.45;"/>
            </g>
            <g transform="matrix(4,0,0,4,-0.572407,1)">
                <rect x="16" y="24" width="6" height="6" style="fill:rgb(206,203,246);fill-opacity:0.65;"/>
            </g>
            <g transform="matrix(4,0,0,4,-0.572407,1)">
                <rect x="22" y="24" width="6" height="6" style="fill:rgb(206,203,246);fill-opacity:0.75;"/>
            </g>
            <g transform="matrix(4,0,0,4,-0.572407,1)">
                <rect x="28" y="24" width="6" height="6" style="fill:rgb(181,212,244);fill-opacity:0.55;"/>
            </g>
            <g transform="matrix(4,0,0,4,-0.572407,1)">
                <rect x="16" y="30" width="6" height="6" style="fill:rgb(181,212,244);fill-opacity:0.45;"/>
            </g>
            <g transform="matrix(4,0,0,4,-0.572407,1)">
                <rect x="22" y="30" width="6" height="6" style="fill:rgb(181,212,244);fill-opacity:0.5;"/>
            </g>
        </g>
        <g transform="matrix(0.496635,0,0,0.496635,36.3938,152.855)">
            <g transform="matrix(4,0,0,4,0,0)">
                <rect x="76" y="18" width="6" height="6" style="fill:rgb(206,203,246);fill-opacity:0.7;"/>
            </g>
            <g transform="matrix(4,0,0,4,0,0)">
                <rect x="82" y="18" width="6" height="6" style="fill:rgb(206,203,246);fill-opacity:0.6;"/>
            </g>
            <g transform="matrix(4,0,0,4,0,0)">
                <rect x="70" y="24" width="6" height="6" style="fill:rgb(181,212,244);fill-opacity:0.55;"/>
            </g>
            <g transform="matrix(4,0,0,4,0,0)">
                <rect x="76" y="24" width="6" height="6" style="fill:rgb(206,203,246);fill-opacity:0.75;"/>
            </g>
            <g transform="matrix(4,0,0,4,0,0)">
                <rect x="82" y="24" width="6" height="6" style="fill:rgb(206,203,246);fill-opacity:0.65;"/>
            </g>
            <g transform="matrix(4,0,0,4,0,0)">
                <rect x="88" y="24" width="6" height="6" style="fill:rgb(181,212,244);fill-opacity:0.45;"/>
            </g>
            <g transform="matrix(4,0,0,4,0,0)">
                <rect x="76" y="30" width="6" height="6" style="fill:rgb(181,212,244);fill-opacity:0.5;"/>
            </g>
            <g transform="matrix(4,0,0,4,0,0)">
                <rect x="82" y="30" width="6" height="6" style="fill:rgb(181,212,244);fill-opacity:0.45;"/>
            </g>
        </g>
    </g>
  </svg>
</svg>
