<svg xmlns="http://www.w3.org/2000/svg" viewBox="0 0 512 512">
  <defs>
    <linearGradient id="bg" x1="0" y1="0" x2="1" y2="1">
      <stop offset="0%" stop-color="#0ea5e9"/>
      <stop offset="100%" stop-color="#0369a1"/>
    </linearGradient>
  </defs>
  <!-- Background -->
  <rect width="512" height="512" fill="url(#bg)"/>
  <!-- Antenna -->
  <line x1="256" y1="68" x2="256" y2="120" stroke="#fff" stroke-width="14" stroke-linecap="round"/>
  <circle cx="256" cy="60" r="18" fill="#38bdf8"/>
  <circle cx="256" cy="60" r="10" fill="#fff"/>
  <!-- Head -->
  <rect x="120" y="120" width="272" height="180" rx="40" fill="#fff"/>
  <!-- Eyes -->
  <circle cx="196" cy="210" r="32" fill="#0ea5e9"/>
  <circle cx="316" cy="210" r="32" fill="#0ea5e9"/>
  <circle cx="204" cy="202" r="10" fill="#fff"/>
  <circle cx="324" cy="202" r="10" fill="#fff"/>
  <!-- Mouth -->
  <rect x="196" y="260" width="120" height="16" rx="8" fill="#0ea5e9"/>
  <!-- Body -->
  <rect x="152" y="316" width="208" height="120" rx="24" fill="#fff"/>
  <!-- Body detail lines -->
  <rect x="208" y="344" width="96" height="12" rx="6" fill="#bae6fd"/>
  <rect x="208" y="368" width="64" height="12" rx="6" fill="#bae6fd"/>
  <!-- Arms -->
  <rect x="72" y="332" width="64" height="28" rx="14" fill="#fff"/>
  <rect x="376" y="332" width="64" height="28" rx="14" fill="#fff"/>
</svg>
