<svg xmlns="http://www.w3.org/2000/svg" viewBox="0 0 512 512">
  <defs>
    <linearGradient id="bg" x1="0.1" y1="0" x2="0.9" y2="1">
      <stop offset="0%" stop-color="#bae6fd"/>
      <stop offset="38%" stop-color="#7dd3fc"/>
      <stop offset="100%" stop-color="#38bdf8"/>
    </linearGradient>
    <radialGradient id="glass" cx="0.3" cy="0.15" r="0.75">
      <stop offset="0%" stop-color="#fff" stop-opacity="0.28"/>
      <stop offset="35%" stop-color="#fff" stop-opacity="0.06"/>
      <stop offset="100%" stop-color="#fff" stop-opacity="0"/>
    </radialGradient>
    <linearGradient id="bottom" x1="0.5" y1="0.88" x2="0.5" y2="1">
      <stop offset="0%" stop-color="#fff" stop-opacity="0"/>
      <stop offset="100%" stop-color="#fff" stop-opacity="0.06"/>
    </linearGradient>
  </defs>
  <rect width="512" height="512" fill="url(#bg)"/>
  <rect width="512" height="512" fill="url(#glass)"/>
  <rect width="512" height="512" fill="url(#bottom)"/>
  <svg x="102.40" y="155.40" width="307.20" height="201.21" viewBox="0 0 171 112" preserveAspectRatio="xMidYMid meet">
<g transform="matrix(1,0,0,1,-52.156,-152.359)">
        <g transform="matrix(0.496635,0,0,0.496635,28.3714,152.359)">
            <g transform="matrix(4,0,0,4,4,0)">
                <rect x="44" y="0" width="6" height="6" style="fill:rgb(24,95,165);"/>
            </g>
            <g transform="matrix(4,0,0,4,4,0)">
                <rect x="58" y="0" width="6" height="6" style="fill:rgb(24,95,165);"/>
            </g>
            <g transform="matrix(4,0,0,4,4,0)">
                <rect x="46" y="6" width="6" height="6" style="fill:rgb(43,108,176);"/>
            </g>
            <g transform="matrix(4,0,0,4,4,0)">
                <rect x="56" y="6" width="6" height="6" style="fill:rgb(43,108,176);"/>
            </g>
            <g>
                <g transform="matrix(4,0,0,4,0,0)">
                    <rect x="40" y="14" width="6" height="6" style="fill:rgb(133,183,235);"/>
                </g>
                <g transform="matrix(4,0,0,4,0,0)">
                    <rect x="46" y="14" width="6" height="6" style="fill:rgb(133,183,235);"/>
                </g>
                <g transform="matrix(4,0,0,4,0,0)">
                    <rect x="52" y="14" width="6" height="6" style="fill:rgb(181,212,244);"/>
                </g>
                <g transform="matrix(4,0,0,4,0,0)">
                    <rect x="58" y="14" width="6" height="6" style="fill:rgb(133,183,235);"/>
                </g>
                <g transform="matrix(4,0,0,4,0,0)">
                    <rect x="64" y="14" width="6" height="6" style="fill:rgb(133,183,235);"/>
                </g>
                <g transform="matrix(4,0,0,4,0,0)">
                    <rect x="40" y="20" width="6" height="6" style="fill:rgb(90,172,245);"/>
                </g>
                <g transform="matrix(4,0,0,4,0,0)">
                    <rect x="46" y="20" width="6" height="6" style="fill:rgb(120,196,255);"/>
                </g>
                <g transform="matrix(4,0,0,4,0,0)">
                    <rect x="52" y="20" width="6" height="6" style="fill:rgb(160,218,255);"/>
                </g>
                <g transform="matrix(4,0,0,4,0,0)">
                    <rect x="58" y="20" width="6" height="6" style="fill:rgb(120,196,255);"/>
                </g>
                <g transform="matrix(4,0,0,4,0,0)">
                    <rect x="64" y="20" width="6" height="6" style="fill:rgb(90,172,245);"/>
                </g>
                <g transform="matrix(4,0,0,4,0,0)">
                    <rect x="40" y="26" width="6" height="6" style="fill:rgb(55,138,221);"/>
                </g>
                <g transform="matrix(4,0,0,4,0,0)">
                    <rect x="40" y="26" width="6" height="6" style="fill:rgb(55,138,221);"/>
                </g>
                <g transform="matrix(4,0,0,4,0,0)">
                    <rect x="46" y="26" width="6" height="6" style="fill:rgb(90,172,245);"/>
                </g>
                <g transform="matrix(4,0,0,4,0,0)">
                    <rect x="52" y="26" width="6" height="6" style="fill:rgb(120,196,255);"/>
                </g>
                <g transform="matrix(4,0,0,4,0,0)">
                    <rect x="58" y="26" width="6" height="6" style="fill:rgb(90,172,245);"/>
                </g>
                <g transform="matrix(4,0,0,4,0,0)">
                    <rect x="64" y="26" width="6" height="6" style="fill:rgb(55,138,221);"/>
                </g>
                <g transform="matrix(4,0,0,4,0,0)">
                    <rect x="40" y="32" width="6" height="6" style="fill:rgb(24,95,165);"/>
                </g>
                <g transform="matrix(4,0,0,4,0,0)">
                    <rect x="46" y="32" width="6" height="6" style="fill:rgb(55,138,221);"/>
                </g>
                <g transform="matrix(4,0,0,4,0,0)">
                    <rect x="52" y="32" width="6" height="6" style="fill:rgb(90,172,245);"/>
                </g>
                <g transform="matrix(4,0,0,4,0,0)">
                    <rect x="58" y="32" width="6" height="6" style="fill:rgb(55,138,221);"/>
                </g>
                <g transform="matrix(4,0,0,4,0,0)">
                    <rect x="64" y="32" width="6" height="6" style="fill:rgb(24,95,165);"/>
                </g>
                <g transform="matrix(4,0,0,4,0,0)">
                    <rect x="40" y="38" width="6" height="6" style="fill:rgb(74,92,192);"/>
                </g>
                <g transform="matrix(4,0,0,4,0,0)">
                    <rect x="46" y="38" width="6" height="6" style="fill:rgb(90,110,208);"/>
                </g>
                <g transform="matrix(4,0,0,4,0,0)">
                    <rect x="52" y="38" width="6" height="6" style="fill:rgb(106,126,224);"/>
                </g>
                <g transform="matrix(4,0,0,4,0,0)">
                    <rect x="58" y="38" width="6" height="6" style="fill:rgb(90,110,208);"/>
                </g>
                <g transform="matrix(4,0,0,4,0,0)">
                    <rect x="64" y="38" width="6" height="6" style="fill:rgb(74,92,192);"/>
                </g>
                <g transform="matrix(4,0,0,4,-4,0)">
                    <rect x="44" y="44" width="6" height="6" style="fill:rgb(83,74,183);"/>
                </g>
                <g transform="matrix(4,0,0,4,-4,0)">
                    <rect x="50" y="44" width="6" height="6" style="fill:rgb(107,94,199);"/>
                </g>
                <g transform="matrix(4,0,0,4,-4,0)">
                    <rect x="56" y="44" width="6" height="6" style="fill:rgb(107,94,199);"/>
                </g>
                <g transform="matrix(4,0,0,4,-4,0)">
                    <rect x="62" y="44" width="6" height="6" style="fill:rgb(83,74,183);"/>
                </g>
                <g transform="matrix(4,0,0,4,-4,0)">
                    <rect x="50" y="50" width="6" height="6" style="fill:rgb(60,52,137);"/>
                </g>
                <g transform="matrix(4,0,0,4,-4,0)">
                    <rect x="56" y="50" width="6" height="6" style="fill:rgb(60,52,137);"/>
                </g>
            </g>
        </g>
        <g transform="matrix(0.496635,0,0,0.496635,32.5749,152.359)">
            <g transform="matrix(4,0,0,4,-0.572407,1)">
                <rect x="16" y="18" width="6" height="6" style="fill:rgb(206,203,246);fill-opacity:0.6;"/>
            </g>
            <g transform="matrix(4,0,0,4,-0.572407,1)">
                <rect x="22" y="18" width="6" height="6" style="fill:rgb(206,203,246);fill-opacity:0.7;"/>
            </g>
            <g transform="matrix(4,0,0,4,-0.572407,1)">
                <rect x="10" y="24" width="6" height="6" style="fill:rgb(181,212,244);fill-opacity:0.45;"/>
            </g>
            <g transform="matrix(4,0,0,4,-0.572407,1)">
                <rect x="16" y="24" width="6" height="6" style="fill:rgb(206,203,246);fill-opacity:0.65;"/>
            </g>
            <g transform="matrix(4,0,0,4,-0.572407,1)">
                <rect x="22" y="24" width="6" height="6" style="fill:rgb(206,203,246);fill-opacity:0.75;"/>
            </g>
            <g transform="matrix(4,0,0,4,-0.572407,1)">
                <rect x="28" y="24" width="6" height="6" style="fill:rgb(181,212,244);fill-opacity:0.55;"/>
            </g>
            <g transform="matrix(4,0,0,4,-0.572407,1)">
                <rect x="16" y="30" width="6" height="6" style="fill:rgb(181,212,244);fill-opacity:0.45;"/>
            </g>
            <g transform="matrix(4,0,0,4,-0.572407,1)">
                <rect x="22" y="30" width="6" height="6" style="fill:rgb(181,212,244);fill-opacity:0.5;"/>
            </g>
        </g>
        <g transform="matrix(0.496635,0,0,0.496635,36.3938,152.855)">
            <g transform="matrix(4,0,0,4,0,0)">
                <rect x="76" y="18" width="6" height="6" style="fill:rgb(206,203,246);fill-opacity:0.7;"/>
            </g>
            <g transform="matrix(4,0,0,4,0,0)">
                <rect x="82" y="18" width="6" height="6" style="fill:rgb(206,203,246);fill-opacity:0.6;"/>
            </g>
            <g transform="matrix(4,0,0,4,0,0)">
                <rect x="70" y="24" width="6" height="6" style="fill:rgb(181,212,244);fill-opacity:0.55;"/>
            </g>
            <g transform="matrix(4,0,0,4,0,0)">
                <rect x="76" y="24" width="6" height="6" style="fill:rgb(206,203,246);fill-opacity:0.75;"/>
            </g>
            <g transform="matrix(4,0,0,4,0,0)">
                <rect x="82" y="24" width="6" height="6" style="fill:rgb(206,203,246);fill-opacity:0.65;"/>
            </g>
            <g transform="matrix(4,0,0,4,0,0)">
                <rect x="88" y="24" width="6" height="6" style="fill:rgb(181,212,244);fill-opacity:0.45;"/>
            </g>
            <g transform="matrix(4,0,0,4,0,0)">
                <rect x="76" y="30" width="6" height="6" style="fill:rgb(181,212,244);fill-opacity:0.5;"/>
            </g>
            <g transform="matrix(4,0,0,4,0,0)">
                <rect x="82" y="30" width="6" height="6" style="fill:rgb(181,212,244);fill-opacity:0.45;"/>
            </g>
        </g>
    </g>
  </svg>
</svg>
